<svg id="visual" viewBox="0 0 540 960" width="540" height="960" xmlns="http://www.w3.org/2000/svg" xmlns:xlink="http://www.w3.org/1999/xlink" version="1.1"><rect x="0" y="0" width="540" height="960" fill="#001220"></rect><defs><linearGradient id="grad1_0" x1="0%" y1="0%" x2="100%" y2="100%"><stop offset="30%" stop-color="#0066ff" stop-opacity="1"></stop><stop offset="70%" stop-color="#0066ff" stop-opacity="1"></stop></linearGradient></defs><defs><linearGradient id="grad1_1" x1="0%" y1="0%" x2="100%" y2="100%"><stop offset="30%" stop-color="#0066ff" stop-opacity="1"></stop><stop offset="70%" stop-color="#001220" stop-opacity="1"></stop></linearGradient></defs><defs><linearGradient id="grad2_0" x1="0%" y1="0%" x2="100%" y2="100%"><stop offset="30%" stop-color="#0066ff" stop-opacity="1"></stop><stop offset="70%" stop-color="#0066ff" stop-opacity="1"></stop></linearGradient></defs><defs><linearGradient id="grad2_1" x1="0%" y1="0%" x2="100%" y2="100%"><stop offset="30%" stop-color="#001220" stop-opacity="1"></stop><stop offset="70%" stop-color="#0066ff" stop-opacity="1"></stop></linearGradient></defs><g transform="translate(540, 0)"><path d="M0 486C-59.9 458.9 -119.8 431.9 -164.9 398.2C-210.1 364.5 -240.6 324.1 -291.3 291.3C-342.1 258.5 -413.2 233.3 -449 186C-484.8 138.7 -485.4 69.3 -486 0L0 0Z" fill="#00408b"></path><path d="M0 243C-29.9 229.5 -59.9 215.9 -82.5 199.1C-105.1 182.2 -120.3 162.1 -145.7 145.7C-171 129.3 -206.6 116.6 -224.5 93C-242.4 69.3 -242.7 34.7 -243 0L0 0Z" fill="#0066ff"></path></g><g transform="translate(0, 960)"><path d="M0 -486C68.3 -485 136.6 -484.1 186 -449C235.4 -413.9 265.9 -344.7 290.6 -290.6C315.3 -236.5 334.3 -197.5 365.9 -151.5C397.5 -105.6 441.7 -52.8 486 0L0 0Z" fill="#00408b"></path><path d="M0 -243C34.1 -242.5 68.3 -242 93 -224.5C117.7 -207 133 -172.4 145.3 -145.3C157.7 -118.3 167.1 -98.7 182.9 -75.8C198.7 -52.8 220.9 -26.4 243 0L0 0Z" fill="#0066ff"></path></g></svg>