<svg id="visual" viewBox="0 0 540 960" width="540" height="960" xmlns="http://www.w3.org/2000/svg" xmlns:xlink="http://www.w3.org/1999/xlink" version="1.1"><rect x="0" y="0" width="540" height="960" fill="#002233"></rect><path d="M0 626L12.8 626.7C25.7 627.3 51.3 628.7 77 639.2C102.7 649.7 128.3 669.3 154 701.7C179.7 734 205.3 779 231.2 778.8C257 778.7 283 733.3 308.8 719.7C334.7 706 360.3 724 386 748C411.7 772 437.3 802 463 806.2C488.7 810.3 514.3 788.7 527.2 777.8L540 767L540 961L527.2 961C514.3 961 488.7 961 463 961C437.3 961 411.7 961 386 961C360.3 961 334.7 961 308.8 961C283 961 257 961 231.2 961C205.3 961 179.7 961 154 961C128.3 961 102.7 961 77 961C51.3 961 25.7 961 12.8 961L0 961Z" fill="#0066FF" stroke-linecap="round" stroke-linejoin="miter"></path></svg>