<svg id="visual" viewBox="0 0 900 600" width="900" height="600" xmlns="http://www.w3.org/2000/svg" xmlns:xlink="http://www.w3.org/1999/xlink" version="1.1"><rect x="0" y="0" width="900" height="600" fill="#002233"></rect><path d="M0 391L21.5 391.3C43 391.7 86 392.3 128.8 398.8C171.7 405.3 214.3 417.7 257.2 438C300 458.3 343 486.7 385.8 486.7C428.7 486.7 471.3 458.3 514.2 449.7C557 441 600 452 642.8 467C685.7 482 728.3 501 771.2 503.7C814 506.3 857 492.7 878.5 485.8L900 479L900 601L878.5 601C857 601 814 601 771.2 601C728.3 601 685.7 601 642.8 601C600 601 557 601 514.2 601C471.3 601 428.7 601 385.8 601C343 601 300 601 257.2 601C214.3 601 171.7 601 128.8 601C86 601 43 601 21.5 601L0 601Z" fill="#0066FF" stroke-linecap="round" stroke-linejoin="miter"></path></svg>